<svg xmlns="http://www.w3.org/2000/svg" width="390" height="844" viewBox="0 0 390 844">
  <rect width="390" height="844" fill="#f8fafb"/>
  <text x="20" y="44" font-family="Inter, Roboto, Arial, sans-serif" font-size="20" font-weight="650" fill="#172026">Install QR Code</text>
  <path d="M348 22l20 20M368 22l-20 20" stroke="#172026" stroke-width="2.4" stroke-linecap="round"/>

  <rect x="37" y="96" width="316" height="316" rx="10" fill="#ffffff" stroke="#d7e0e6"/>
  <g fill="#172026">
    <rect x="70" y="129" width="70" height="70"/><rect x="84" y="143" width="42" height="42" fill="#fff"/><rect x="98" y="157" width="14" height="14"/>
    <rect x="250" y="129" width="70" height="70"/><rect x="264" y="143" width="42" height="42" fill="#fff"/><rect x="278" y="157" width="14" height="14"/>
    <rect x="70" y="309" width="70" height="70"/><rect x="84" y="323" width="42" height="42" fill="#fff"/><rect x="98" y="337" width="14" height="14"/>
    <rect x="170" y="130" width="18" height="18"/><rect x="206" y="130" width="18" height="18"/><rect x="188" y="148" width="18" height="18"/>
    <rect x="158" y="190" width="18" height="18"/><rect x="194" y="190" width="18" height="18"/><rect x="230" y="190" width="18" height="18"/>
    <rect x="164" y="232" width="18" height="18"/><rect x="200" y="232" width="18" height="18"/><rect x="236" y="232" width="18" height="18"/><rect x="284" y="232" width="18" height="18"/>
    <rect x="158" y="274" width="18" height="18"/><rect x="194" y="274" width="18" height="18"/><rect x="248" y="274" width="18" height="18"/><rect x="302" y="274" width="18" height="18"/>
    <rect x="170" y="320" width="18" height="18"/><rect x="206" y="320" width="18" height="18"/><rect x="242" y="320" width="18" height="18"/><rect x="278" y="320" width="18" height="18"/>
    <rect x="158" y="356" width="18" height="18"/><rect x="194" y="356" width="18" height="18"/><rect x="230" y="356" width="18" height="18"/><rect x="302" y="356" width="18" height="18"/>
  </g>

  <rect x="20" y="456" width="350" height="104" rx="8" fill="#eef3f6" stroke="#d7e0e6"/>
  <text x="38" y="490" font-family="Inter, Roboto, Arial, sans-serif" font-size="13" font-weight="700" fill="#172026">Activation Code</text>
  <text x="38" y="518" font-family="Inter, Roboto, Arial, sans-serif" font-size="14" fill="#25323a">MATCH-84A1-EU</text>
  <text x="206" y="490" font-family="Inter, Roboto, Arial, sans-serif" font-size="13" font-weight="700" fill="#172026">SM-DP+</text>
  <text x="206" y="518" font-family="Inter, Roboto, Arial, sans-serif" font-size="14" fill="#25323a">smdp.esim.example</text>

  <rect x="20" y="600" width="350" height="56" rx="28" fill="#ffffff" stroke="#0b57d0"/>
  <text x="111" y="635" font-family="Inter, Roboto, Arial, sans-serif" font-size="15" font-weight="700" fill="#0b57d0">Copy Activation Code</text>
  <rect x="20" y="672" width="350" height="56" rx="28" fill="#ffffff" stroke="#0b57d0"/>
  <text x="137" y="707" font-family="Inter, Roboto, Arial, sans-serif" font-size="15" font-weight="700" fill="#0b57d0">Copy SM-DP+</text>
</svg>
